PathFileType	4	(X/Y/Z)	/Users/itak/Documents/Research/Walk-IL/dataset/trc/00201_00008.trc
DataRate	CameraRate	NumFrames	NumMarkers	Units	OrigDataRate	OrigDataStartFrame	OrigNumFrames
100.000000	100.000000	4	54	mm	100.000000	283	567
Frame#	Time	RPSI			LPSI			L3			STRN			T10			C7			CLAV			RBAK			LBAK			LSHO			LUPA			LAEL			LAOL			LWTS			LWPS			LFRA			LIFD			LHPS			LHTS			RSHO			RUPA			RAEL			RAOL			RWTS			RWPS			RFRA			RIFD			RHTS			RHPS			RBHD			LFHD			RFHD			LBHD			LHIP			RASI			LASI			LKNE			LTHI			LANK			LTIP			LTOE			LMT1			LMT5			LHEE			RKNE			RTHI			RANK			RTIP			RTOE			RMT1			RMT5			RHEE			RHIP			*53			
		X1	Y1	Z1	X2	Y2	Z2	X3	Y3	Z3	X4	Y4	Z4	X5	Y5	Z5	X6	Y6	Z6	X7	Y7	Z7	X8	Y8	Z8	X9	Y9	Z9	X10	Y10	Z10	X11	Y11	Z11	X12	Y12	Z12	X13	Y13	Z13	X14	Y14	Z14	X15	Y15	Z15	X16	Y16	Z16	X17	Y17	Z17	X18	Y18	Z18	X19	Y19	Z19	X20	Y20	Z20	X21	Y21	Z21	X22	Y22	Z22	X23	Y23	Z23	X24	Y24	Z24	X25	Y25	Z25	X26	Y26	Z26	X27	Y27	Z27	X28	Y28	Z28	X29	Y29	Z29	X30	Y30	Z30	X31	Y31	Z31	X32	Y32	Z32	X33	Y33	Z33	X34	Y34	Z34	X35	Y35	Z35	X36	Y36	Z36	X37	Y37	Z37	X38	Y38	Z38	X39	Y39	Z39	X40	Y40	Z40	X41	Y41	Z41	X42	Y42	Z42	X43	Y43	Z43	X44	Y44	Z44	X45	Y45	Z45	X46	Y46	Z46	X47	Y47	Z47	X48	Y48	Z48	X49	Y49	Z49	X50	Y50	Z50	X51	Y51	Z51	X52	Y52	Z52	X53	Y53	Z53	X54	Y54	Z54	

284	2.83	-493.7963562011719	1041.821411132812	-342.2474365234375	-428.9450378417969	1047.191528320312	-447.6792297363281	-465.3415222167969	1080.878540039062	-390.6629028320312	-239.5698547363281	1291.55322265625	-270.0173645019531	-493.0088806152344	1234.644775390625	-415.7995300292969	-431.1990966796875	1504.1103515625	-404.7085266113281	-258.293212890625	1403.741943359375	-298.2896118164062	-543.337158203125	1332.671264648438	-337.0415649414062	-386.8235473632812	1475.754028320312	-493.0831909179688	-283.7646179199219	1461.456298828125	-525.7044677734375	-287.7381591796875	1329.915405273438	-606.4204711914062	-291.0928649902344	1115.488647460938	-622.0941772460938	-357.0834350585938	1102.629760742188	-565.4426879882812	-227.4766235351562	867.959228515625	-582.684326171875	-296.1190185546875	864.2780151367188	-645.3412475585938	-288.5733947753906	1006.575622558594	-639.8579711914062	-253.4392852783203	682.014892578125	-575.2218627929688	-288.5716552734375	792.0690307617188	-643.3219604492188	-224.9938812255859	788.5892333984375	-606.9507446289062	-463.3990478515625	1489.537109375	-215.1376342773438	-517.01611328125	1426.65087890625	-164.3582458496094	-572.6614990234375	1142.95751953125	-122.2812881469727	-520.6566772460938	1129.419677734375	-204.7683410644531	-462.2152099609375	909.6552734375	-54.49555969238281	-549.9417724609375	900.068115234375	-52.78519058227539	-566.3192749023438	1071.716430664062	-90.05404663085938	-454.4373779296875	716.9256591796875	-64.84295654296875	-452.3826599121094	814.0559692382812	-33.3655891418457	-531.595458984375	816.1852416992188	-38.26725769042969	-417.4870300292969	1667.843505859375	-321.0017395019531	-206.5463104248047	1714.40087890625	-316.7771606445312	-286.4098815917969	1708.654052734375	-214.8730621337891	-339.9275817871094	1681.537475585938	-432.998046875	-274.3941345214844	997.654052734375	-492.654541015625	-337.8759765625	1025.279052734375	-158.1588745117188	-203.4114837646484	1029.87158203125	-374.7818298339844	-155.4969482421875	508.32666015625	-382.1601867675781	-175.3257751464844	647.2625122070312	-429.0894165039062	-190.3039398193359	32.12028884887695	-407.5279541015625	-159.2675628662109	275.3796081542969	-399.9801025390625	-19.11504173278809	43.55415344238281	-269.01220703125	-86.56355285644531	45.64167785644531	-253.0851287841797	-79.28791809082031	29.05294227600098	-381.1763305664062	-269.1874694824219	37.52141189575195	-377.3075256347656	-446.6062622070312	480.6241455078125	-193.2015686035156	-404.1001586914062	749.9063110351562	-140.1247253417969	-773.6077270507812	158.3707275390625	-410.6034545898438	-491.8936767578125	369.0918273925781	-235.2708740234375	-614.5687866210938	48.29694747924805	-358.8028564453125	-623.80029296875	63.7583122253418	-417.1544189453125	-728.4337158203125	73.22089385986328	-348.3773803710938	-761.0330810546875	204.0730285644531	-481.5487976074219	-435.3596801757812	986.1165161132812	-155.2084350585938	nan	nan	nan	
285	2.84	-484.5625305175781	1042.844116210938	-341.0732421875	-418.5726928710938	1048.786254882812	-445.7527770996094	-455.6209106445312	1082.311767578125	-389.1954345703125	-230.8579559326172	1292.547607421875	-265.5538330078125	-482.4813537597656	1236.227783203125	-414.4556884765625	-420.4511413574219	1505.590209960938	-402.3034057617188	-249.0565338134766	1404.769897460938	-293.9879455566406	-533.6196899414062	1334.255737304688	-336.111328125	-375.1702575683594	1477.213134765625	-490.215087890625	-271.7595825195312	1462.755615234375	-521.59765625	-274.9659118652344	1331.381225585938	-602.5953369140625	-278.3158874511719	1116.876831054688	-618.6459350585938	-345.176025390625	1104.085693359375	-563.1151733398438	-214.7533874511719	869.5315551757812	-577.79345703125	-282.2153015136719	865.490234375	-641.6447143554688	-275.3355407714844	1007.839416503906	-636.2674560546875	-240.1584320068359	683.557861328125	-570.2100830078125	-274.5481567382812	793.29296875	-639.2652587890625	-211.6411437988281	790.145751953125	-601.8197631835938	-454.8867797851562	1490.95654296875	-213.1832885742188	-509.1456298828125	1428.112548828125	-163.1315460205078	-565.9354248046875	1144.824096679688	-121.0380020141602	-513.1107177734375	1130.897705078125	-202.972900390625	-457.3201599121094	911.1990966796875	-51.56973266601562	-545.0068969726562	902.0488891601562	-50.74642181396484	-560.248046875	1073.671997070312	-88.66276550292969	-450.4195861816406	718.3903198242188	-61.57781600952148	-448.0194396972656	815.5625610351562	-30.1561107635498	-527.3032836914062	818.1199340820312	-35.94547271728516	-407.9127502441406	1669.111938476562	-318.6543579101562	-197.0930328369141	1715.890258789062	-312.6399841308594	-277.8285217285156	1710.331420898438	-211.4680938720703	-329.3681030273438	1682.633666992188	-429.974609375	-263.7035217285156	998.9740600585938	-488.9647521972656	-330.8991394042969	1026.24560546875	-155.2237548828125	-193.7594757080078	1030.762084960938	-370.3540649414062	-151.3497619628906	507.9332885742188	-380.6647644042969	-169.1421966552734	647.45654296875	-426.6202697753906	-190.2290649414062	32.20025634765625	-407.4484252929688	-157.3865203857422	275.0697631835938	-399.4129943847656	-19.0474681854248	43.02956008911133	-268.6442565917969	-86.59913635253906	45.34916305541992	-252.8514862060547	-79.183837890625	28.99606895446777	-381.2457885742188	-269.0790405273438	37.86171722412109	-377.1926879882812	-430.3974609375	480.6558227539062	-184.3149108886719	-394.1923217773438	751.2570190429688	-135.3722076416016	-758.32421875	165.3562316894531	-407.5361633300781	-475.9447631835938	369.8473815917969	-226.7435150146484	-603.7896118164062	50.89613342285156	-347.7777709960938	-610.9368286132812	66.37413787841797	-407.0801696777344	-717.5139770507812	80.53466796875	-341.9614868164062	-742.8859252929688	209.05322265625	-478.9739990234375	-428.4214782714844	986.6800537109375	-153.5298004150391	nan	nan	nan	
286	2.85	-475.563232421875	1043.829467773438	-339.9168701171875	-408.4306945800781	1050.239379882812	-443.8505554199219	-446.1133117675781	1083.664306640625	-387.7424621582031	-222.4387664794922	1293.331787109375	-261.0270080566406	-472.1693115234375	1237.833374023438	-413.1436462402344	-409.7599182128906	1507.044189453125	-399.7926635742188	-240.0291595458984	1405.620239257812	-289.562255859375	-524.0774536132812	1335.837158203125	-335.2117309570312	-363.5444030761719	1478.658935546875	-487.2445678710938	-259.7688598632812	1463.964111328125	-517.3152465820312	-262.1506652832031	1332.74951171875	-598.5718994140625	-265.3880920410156	1118.171752929688	-615.0819091796875	-333.2503356933594	1105.416259765625	-560.8176879882812	-201.7564086914062	871.0762329101562	-572.70068359375	-267.9507446289062	866.600341796875	-637.7908935546875	-261.865234375	1008.997802734375	-632.5548095703125	-226.3088531494141	685.0545043945312	-565.0700073242188	-260.0302124023438	794.43505859375	-635.0611572265625	-197.8583221435547	791.7244873046875	-596.4967041015625	-446.5171813964844	1492.259155273438	-211.1398468017578	-501.4452514648438	1429.423095703125	-161.8698883056641	-559.3483276367188	1146.506469726562	-119.7461090087891	-505.7502136230469	1132.222412109375	-201.1603240966797	-452.2653503417969	912.7371215820312	-48.59347534179688	-539.89013671875	903.8779296875	-48.66045379638672	-554.22705078125	1075.4365234375	-87.21647644042969	-445.9150085449219	719.885009765625	-58.05361175537109	-443.3137817382812	817.1328125	-26.79508209228516	-522.6984252929688	819.9500122070312	-33.52135467529297	-398.4026489257812	1670.266723632812	-316.1815795898438	-187.7334747314453	1717.293334960938	-308.4189453125	-269.3383483886719	1711.947143554688	-207.979736328125	-318.8862609863281	1683.584838867188	-426.8349609375	-253.3085021972656	1000.131103515625	-485.27392578125	-324.1540222167969	1027.172485351562	-152.1829223632812	-184.4336395263672	1031.52978515625	-365.9192504882812	-147.3659362792969	507.52490234375	-379.273193359375	-163.1358489990234	647.6480712890625	-424.1788330078125	-190.1628112792969	32.25449752807617	-407.3880310058594	-155.5410461425781	274.7743835449219	-398.8960876464844	-18.95481872558594	42.63322067260742	-268.3445434570312	-86.58908843994141	45.12345886230469	-252.7043762207031	-79.07176971435547	28.88537216186523	-381.3882141113281	-268.99365234375	38.17319869995117	-377.0475769042969	-414.0508728027344	481.0909729003906	-175.3185577392578	-384.4755249023438	752.8080444335938	-130.5381317138672	-741.739990234375	171.4259796142578	-403.7667236328125	-459.600341796875	370.8859558105469	-218.1364593505859	-591.0161743164062	53.7032585144043	-336.3416748046875	-596.5701904296875	68.97416687011719	-396.5139465332031	-704.604736328125	87.58623504638672	-334.7680053710938	-723.9690551757812	212.8614959716797	-475.7949829101562	-421.7317504882812	987.28466796875	-151.8456268310547	nan	nan	nan	
287	2.86	-466.7790222167969	1044.814697265625	-338.7493286132812	-398.4871826171875	1051.552124023438	-441.9466247558594	-436.7835388183594	1084.947998046875	-386.2758178710938	-214.2918090820312	1293.951782226562	-256.4591369628906	-462.0657653808594	1239.455078125	-411.8394165039062	-399.1614074707031	1508.467529296875	-397.1906127929688	-231.2159118652344	1406.340209960938	-285.0348205566406	-514.7066040039062	1337.410278320312	-334.3307800292969	-351.9801940917969	1480.0947265625	-484.1812133789062	-247.83349609375	1465.106323242188	-512.8758544921875	-249.3048095703125	1334.040405273438	-594.3541870117188	-252.2937927246094	1119.396362304688	-611.3772583007812	-321.3025512695312	1106.64208984375	-558.5267333984375	-188.5090026855469	872.6044311523438	-567.4067993164062	-253.3665618896484	867.6438598632812	-633.762939453125	-248.1547088623047	1010.08251953125	-628.6954956054688	-211.9650115966797	686.51806640625	-559.8167114257812	-245.0668792724609	795.5302734375	-630.7088012695312	-183.690673828125	793.3334350585938	-590.9862670898438	-438.3041076660156	1493.464233398438	-209.0302734375	-493.921630859375	1430.615966796875	-160.5790405273438	-552.9121704101562	1148.027221679688	-118.4392318725586	-498.5562133789062	1133.41796875	-199.3537445068359	-447.0569763183594	914.28662109375	-45.57641220092773	-534.6137084960938	905.5722045898438	-46.56756210327148	-548.2672119140625	1077.0302734375	-85.74993896484375	-440.932373046875	721.423828125	-54.28348541259766	-438.2939758300781	818.7805786132812	-23.29571914672852	-517.7965087890625	821.6822509765625	-31.02875328063965	-388.9584350585938	1671.32861328125	-313.5855712890625	-178.4632568359375	1718.600463867188	-304.0967712402344	-260.9456787109375	1713.486938476562	-204.3989105224609	-308.4762878417969	1684.415649414062	-423.5777587890625	-243.2070922851562	1001.134948730469	-481.5977783203125	-317.5800476074219	1028.121459960938	-149.0492706298828	-175.4127197265625	1032.211181640625	-361.5103454589844	-143.5201568603516	507.1062622070312	-377.9536437988281	-157.2987365722656	647.8240966796875	-421.7718811035156	-190.1001586914062	32.28940582275391	-407.3438720703125	-153.7024230957031	274.498291015625	-398.3936157226562	-18.84325981140137	42.32596588134766	-268.1016540527344	-86.53955841064453	44.94701385498047	-252.6249847412109	-78.95198059082031	28.7314453125	-381.5886535644531	-268.9208679199219	38.44112014770508	-376.9088134765625	-397.6553955078125	481.9617309570312	-166.2359771728516	-374.9797668457031	754.5941772460938	-125.6451873779297	-723.9891967773438	176.4396057128906	-399.317138671875	-442.9433288574219	372.2058715820312	-209.4241180419922	-576.358154296875	56.56392669677734	-324.6684875488281	-580.73291015625	71.44255065917969	-385.6416931152344	-689.8128662109375	94.06456756591797	-326.9723205566406	-704.3551025390625	215.5181579589844	-471.9720764160156	-415.227294921875	988.0084838867188	-150.1227722167969	nan	nan	nan	
